<svg width="560" height="612" viewBox="0 0 560 612" fill="none" xmlns="http://www.w3.org/2000/svg">
<path d="M280 21L522.487 464.25H37.5129L280 21Z" fill="black" stroke="white" stroke-width="20"/>
<line x1="133" y1="346" x2="428" y2="346" stroke="white" stroke-width="10"/>
<line x1="199" y1="219" x2="362" y2="219" stroke="white" stroke-width="10"/>
<path d="M254.406 403.359C254.406 405.589 254.031 407.536 253.281 409.203C252.531 410.859 251.469 412.125 250.094 413C248.719 413.875 247.115 414.312 245.281 414.312C243.552 414.312 242 413.896 240.625 413.062C239.26 412.229 238.188 411.036 237.406 409.484C236.635 407.932 236.208 406.12 236.125 404.047H232.859V414H229.859V391.25H232.859V401.688H236.109C236.141 399.542 236.531 397.661 237.281 396.047C238.031 394.422 239.099 393.167 240.484 392.281C241.87 391.385 243.458 390.938 245.25 390.938C247.073 390.938 248.677 391.38 250.062 392.266C251.458 393.141 252.531 394.417 253.281 396.094C254.031 397.76 254.406 399.703 254.406 401.922V403.359ZM251.422 401.891C251.422 399.193 250.88 397.125 249.797 395.688C248.714 394.24 247.198 393.516 245.25 393.516C243.354 393.516 241.859 394.24 240.766 395.688C239.682 397.125 239.125 399.125 239.094 401.688V403.359C239.094 405.974 239.641 408.031 240.734 409.531C241.839 411.021 243.354 411.766 245.281 411.766C247.219 411.766 248.719 411.062 249.781 409.656C250.844 408.24 251.391 406.214 251.422 403.578V401.891ZM271.625 414H268.734V406.781H260.969V414H258.062V397.094H260.969V404.422H268.734V397.094H271.625V414ZM287.219 397.094H290.109V414H287.219V401.672L279.422 414H276.531V397.094H279.422V409.438L287.219 397.094ZM307.312 399.438H301.641V414H298.75V399.438H293.188V397.094H307.312V399.438ZM313.281 402.922H317.672C319.589 402.943 321.104 403.443 322.219 404.422C323.333 405.401 323.891 406.729 323.891 408.406C323.891 410.094 323.318 411.448 322.172 412.469C321.026 413.49 319.484 414 317.547 414H310.391V397.094H313.281V402.922ZM329.922 414H327.016V397.094H329.922V414ZM313.281 405.281V411.641H317.578C318.661 411.641 319.5 411.365 320.094 410.812C320.688 410.25 320.984 409.484 320.984 408.516C320.984 407.578 320.693 406.812 320.109 406.219C319.536 405.615 318.729 405.302 317.688 405.281H313.281Z" fill="white"/>
<path d="M171.984 276.25H174.984V299H171.984V281.469L160.781 299H157.766V276.25H160.781V293.781L171.984 276.25ZM193.812 299H190.922V291.781H183.156V299H180.25V282.094H183.156V289.422H190.922V282.094H193.812V299ZM211.031 284.438H205.359V299H202.469V284.438H196.906V282.094H211.031V284.438ZM219.609 299.312C217.318 299.312 215.453 298.562 214.016 297.062C212.578 295.552 211.859 293.536 211.859 291.016V290.484C211.859 288.807 212.177 287.312 212.812 286C213.458 284.677 214.354 283.646 215.5 282.906C216.656 282.156 217.906 281.781 219.25 281.781C221.448 281.781 223.156 282.505 224.375 283.953C225.594 285.401 226.203 287.474 226.203 290.172V291.375H214.75C214.792 293.042 215.276 294.391 216.203 295.422C217.141 296.443 218.328 296.953 219.766 296.953C220.786 296.953 221.651 296.745 222.359 296.328C223.068 295.911 223.688 295.359 224.219 294.672L225.984 296.047C224.568 298.224 222.443 299.312 219.609 299.312ZM219.25 284.156C218.083 284.156 217.104 284.583 216.312 285.438C215.521 286.281 215.031 287.469 214.844 289H223.312V288.781C223.229 287.312 222.833 286.177 222.125 285.375C221.417 284.562 220.458 284.156 219.25 284.156ZM240.484 284.484H232.688V299H229.781V282.094H240.484V284.484ZM257.281 290.734C257.281 293.307 256.693 295.38 255.516 296.953C254.339 298.526 252.745 299.312 250.734 299.312C248.682 299.312 247.068 298.661 245.891 297.359V305.5H243V282.094H245.641L245.781 283.969C246.958 282.51 248.594 281.781 250.688 281.781C252.719 281.781 254.323 282.547 255.5 284.078C256.688 285.609 257.281 287.74 257.281 290.469V290.734ZM254.391 290.406C254.391 288.5 253.984 286.995 253.172 285.891C252.359 284.786 251.245 284.234 249.828 284.234C248.078 284.234 246.766 285.01 245.891 286.562V294.641C246.755 296.182 248.078 296.953 249.859 296.953C251.245 296.953 252.344 296.406 253.156 295.312C253.979 294.208 254.391 292.573 254.391 290.406ZM271.406 299C271.24 298.667 271.104 298.073 271 297.219C269.656 298.615 268.052 299.312 266.188 299.312C264.521 299.312 263.151 298.844 262.078 297.906C261.016 296.958 260.484 295.76 260.484 294.312C260.484 292.552 261.151 291.188 262.484 290.219C263.828 289.24 265.714 288.75 268.141 288.75H270.953V287.422C270.953 286.411 270.651 285.609 270.047 285.016C269.443 284.411 268.552 284.109 267.375 284.109C266.344 284.109 265.479 284.37 264.781 284.891C264.083 285.411 263.734 286.042 263.734 286.781H260.828C260.828 285.938 261.125 285.125 261.719 284.344C262.323 283.552 263.135 282.927 264.156 282.469C265.188 282.01 266.318 281.781 267.547 281.781C269.495 281.781 271.021 282.271 272.125 283.25C273.229 284.219 273.802 285.557 273.844 287.266V295.047C273.844 296.599 274.042 297.833 274.438 298.75V299H271.406ZM266.609 296.797C267.516 296.797 268.375 296.562 269.188 296.094C270 295.625 270.589 295.016 270.953 294.266V290.797H268.688C265.146 290.797 263.375 291.833 263.375 293.906C263.375 294.812 263.677 295.521 264.281 296.031C264.885 296.542 265.661 296.797 266.609 296.797ZM278.625 282.094H281.531V296.641H289.312V282.094H292.203V296.641H294.219L293.938 304.016H291.344V299H278.625V282.094ZM308.281 282.094H311.172V299H308.281V286.672L300.484 299H297.594V282.094H300.484V294.438L308.281 282.094ZM315.047 290.391C315.047 288.734 315.37 287.245 316.016 285.922C316.672 284.599 317.578 283.578 318.734 282.859C319.901 282.141 321.229 281.781 322.719 281.781C325.021 281.781 326.88 282.578 328.297 284.172C329.724 285.766 330.438 287.885 330.438 290.531V290.734C330.438 292.38 330.12 293.859 329.484 295.172C328.859 296.474 327.958 297.49 326.781 298.219C325.615 298.948 324.271 299.312 322.75 299.312C320.458 299.312 318.599 298.516 317.172 296.922C315.755 295.328 315.047 293.219 315.047 290.594V290.391ZM317.953 290.734C317.953 292.609 318.385 294.115 319.25 295.25C320.125 296.385 321.292 296.953 322.75 296.953C324.219 296.953 325.385 296.38 326.25 295.234C327.115 294.078 327.547 292.464 327.547 290.391C327.547 288.536 327.104 287.036 326.219 285.891C325.344 284.734 324.177 284.156 322.719 284.156C321.292 284.156 320.141 284.724 319.266 285.859C318.391 286.995 317.953 288.62 317.953 290.734ZM347.875 299H344.984V291.781H337.219V299H334.312V282.094H337.219V289.422H344.984V282.094H347.875V299ZM366.344 299H363.453V291.781H355.688V299H352.781V282.094H355.688V289.422H363.453V282.094H366.344V299ZM374.156 287.922H378.547C380.464 287.943 381.979 288.443 383.094 289.422C384.208 290.401 384.766 291.729 384.766 293.406C384.766 295.094 384.193 296.448 383.047 297.469C381.901 298.49 380.359 299 378.422 299H371.266V282.094H374.156V287.922ZM390.797 299H387.891V282.094H390.797V299ZM374.156 290.281V296.641H378.453C379.536 296.641 380.375 296.365 380.969 295.812C381.562 295.25 381.859 294.484 381.859 293.516C381.859 292.578 381.568 291.812 380.984 291.219C380.411 290.615 379.604 290.302 378.562 290.281H374.156ZM402.859 299.312C400.568 299.312 398.703 298.562 397.266 297.062C395.828 295.552 395.109 293.536 395.109 291.016V290.484C395.109 288.807 395.427 287.312 396.062 286C396.708 284.677 397.604 283.646 398.75 282.906C399.906 282.156 401.156 281.781 402.5 281.781C404.698 281.781 406.406 282.505 407.625 283.953C408.844 285.401 409.453 287.474 409.453 290.172V291.375H398C398.042 293.042 398.526 294.391 399.453 295.422C400.391 296.443 401.578 296.953 403.016 296.953C404.036 296.953 404.901 296.745 405.609 296.328C406.318 295.911 406.938 295.359 407.469 294.672L409.234 296.047C407.818 298.224 405.693 299.312 402.859 299.312ZM402.5 284.156C401.333 284.156 400.354 284.583 399.562 285.438C398.771 286.281 398.281 287.469 398.094 289H406.562V288.781C406.479 287.312 406.083 286.177 405.375 285.375C404.667 284.562 403.708 284.156 402.5 284.156Z" fill="white"/>
<path d="M264.5 177.484H254.641V185.547H266.094V188H251.641V165.25H265.938V167.719H254.641V175.031H264.5V177.484ZM283.984 188H269.078V185.922L276.953 177.172C278.12 175.849 278.922 174.776 279.359 173.953C279.807 173.12 280.031 172.26 280.031 171.375C280.031 170.188 279.672 169.214 278.953 168.453C278.234 167.693 277.276 167.312 276.078 167.312C274.641 167.312 273.521 167.724 272.719 168.547C271.927 169.359 271.531 170.495 271.531 171.953H268.641C268.641 169.859 269.312 168.167 270.656 166.875C272.01 165.583 273.818 164.938 276.078 164.938C278.193 164.938 279.865 165.495 281.094 166.609C282.323 167.714 282.938 169.188 282.938 171.031C282.938 173.271 281.51 175.938 278.656 179.031L272.562 185.641H283.984V188ZM300.656 177.484H290.797V185.547H302.25V188H287.797V165.25H302.094V167.719H290.797V175.031H300.656V177.484Z" fill="white"/>
</svg>
